<mxfile host="app.diagrams.net" agent="Mozilla/5.0 (Windows NT 10.0; Win64; x64) AppleWebKit/537.36 (KHTML, like Gecko) Chrome/138.0.0.0 Safari/537.36" version="28.0.5">
  <diagram name="Страница — 1" id="7J_jFhOdAnsE6f3VLH2_">
    <mxGraphModel dx="1042" dy="569" grid="1" gridSize="10" guides="1" tooltips="1" connect="1" arrows="1" fold="1" page="1" pageScale="1" pageWidth="827" pageHeight="1169" math="0" shadow="0">
      <root>
        <mxCell id="0" />
        <mxCell id="1" parent="0" />
        <mxCell id="F8t8uROCUfs1VxSHA6aZ-66" value="" style="shape=table;startSize=0;container=1;collapsible=0;childLayout=tableLayout;perimeterSpacing=11;strokeWidth=1;verticalAlign=top;" parent="1" vertex="1">
          <mxGeometry x="111" y="90" width="789" height="2315" as="geometry" />
        </mxCell>
        <mxCell id="F8t8uROCUfs1VxSHA6aZ-67" value="" style="shape=tableRow;horizontal=0;startSize=0;swimlaneHead=0;swimlaneBody=0;strokeColor=inherit;top=0;left=0;bottom=0;right=0;collapsible=0;dropTarget=0;fillColor=none;points=[[0,0.5],[1,0.5]];portConstraint=eastwest;" parent="F8t8uROCUfs1VxSHA6aZ-66" vertex="1">
          <mxGeometry width="789" height="62" as="geometry" />
        </mxCell>
        <mxCell id="F8t8uROCUfs1VxSHA6aZ-68" value="&lt;font&gt;Заголовок&lt;/font&gt;" style="shape=partialRectangle;html=1;whiteSpace=wrap;connectable=0;strokeColor=#82b366;overflow=hidden;fillColor=#d5e8d4;top=0;left=0;bottom=0;right=0;pointerEvents=1;fontStyle=1;fontSize=17;perimeterSpacing=1;" parent="F8t8uROCUfs1VxSHA6aZ-67" vertex="1">
          <mxGeometry width="260" height="62" as="geometry">
            <mxRectangle width="260" height="62" as="alternateBounds" />
          </mxGeometry>
        </mxCell>
        <mxCell id="F8t8uROCUfs1VxSHA6aZ-69" value="Получение консультации по созданию артефакта с помощью AI-агента в IDE" style="shape=partialRectangle;html=1;whiteSpace=wrap;connectable=0;overflow=hidden;top=0;left=0;bottom=0;right=0;pointerEvents=1;perimeterSpacing=1;fontSize=16;" parent="F8t8uROCUfs1VxSHA6aZ-67" vertex="1">
          <mxGeometry x="260" width="529" height="62" as="geometry">
            <mxRectangle width="529" height="62" as="alternateBounds" />
          </mxGeometry>
        </mxCell>
        <mxCell id="F8t8uROCUfs1VxSHA6aZ-70" value="" style="shape=tableRow;horizontal=0;startSize=0;swimlaneHead=0;swimlaneBody=0;strokeColor=inherit;top=0;left=0;bottom=0;right=0;collapsible=0;dropTarget=0;fillColor=none;points=[[0,0.5],[1,0.5]];portConstraint=eastwest;" parent="F8t8uROCUfs1VxSHA6aZ-66" vertex="1">
          <mxGeometry y="62" width="789" height="88" as="geometry" />
        </mxCell>
        <mxCell id="F8t8uROCUfs1VxSHA6aZ-71" value="Акторы" style="shape=partialRectangle;html=1;whiteSpace=wrap;connectable=0;strokeColor=#82b366;overflow=hidden;fillColor=#d5e8d4;top=0;left=0;bottom=0;right=0;pointerEvents=1;fontSize=17;fontStyle=1;perimeterSpacing=1;" parent="F8t8uROCUfs1VxSHA6aZ-70" vertex="1">
          <mxGeometry width="260" height="88" as="geometry">
            <mxRectangle width="260" height="88" as="alternateBounds" />
          </mxGeometry>
        </mxCell>
        <mxCell id="F8t8uROCUfs1VxSHA6aZ-72" value="&lt;font style=&quot;font-size: 16px;&quot;&gt;Системный аналитик&lt;/font&gt;" style="shape=partialRectangle;html=1;whiteSpace=wrap;connectable=0;overflow=hidden;top=0;left=0;bottom=0;right=0;pointerEvents=1;perimeterSpacing=0;" parent="F8t8uROCUfs1VxSHA6aZ-70" vertex="1">
          <mxGeometry x="260" width="529" height="88" as="geometry">
            <mxRectangle width="529" height="88" as="alternateBounds" />
          </mxGeometry>
        </mxCell>
        <mxCell id="F8t8uROCUfs1VxSHA6aZ-73" value="" style="shape=tableRow;horizontal=0;startSize=0;swimlaneHead=0;swimlaneBody=0;strokeColor=inherit;top=0;left=0;bottom=0;right=0;collapsible=0;dropTarget=0;fillColor=none;points=[[0,0.5],[1,0.5]];portConstraint=eastwest;" parent="F8t8uROCUfs1VxSHA6aZ-66" vertex="1">
          <mxGeometry y="150" width="789" height="110" as="geometry" />
        </mxCell>
        <mxCell id="F8t8uROCUfs1VxSHA6aZ-74" value="Предусловие" style="shape=partialRectangle;html=1;whiteSpace=wrap;connectable=0;strokeColor=#82b366;overflow=hidden;fillColor=#d5e8d4;top=0;left=0;bottom=0;right=0;pointerEvents=1;fontSize=17;fontStyle=1" parent="F8t8uROCUfs1VxSHA6aZ-73" vertex="1">
          <mxGeometry width="260" height="110" as="geometry">
            <mxRectangle width="260" height="110" as="alternateBounds" />
          </mxGeometry>
        </mxCell>
        <mxCell id="F8t8uROCUfs1VxSHA6aZ-75" value="&lt;div style=&quot;&quot;&gt;&lt;span style=&quot;background-color: transparent; color: light-dark(rgb(0, 0, 0), rgb(255, 255, 255));&quot;&gt;1. У системного аналитика есть доступ к проекту;&lt;/span&gt;&lt;/div&gt;&lt;div style=&quot;&quot;&gt;2. AI-агент установлен и активирован;&lt;/div&gt;&lt;div style=&quot;&quot;&gt;3. IDE подключена к рабочей папке или репозиторию с артефактами.&lt;/div&gt;" style="shape=partialRectangle;html=1;whiteSpace=wrap;connectable=0;overflow=hidden;top=0;left=0;bottom=0;right=0;pointerEvents=1;gradientColor=none;perimeterSpacing=1;fontSize=16;align=left;" parent="F8t8uROCUfs1VxSHA6aZ-73" vertex="1">
          <mxGeometry x="260" width="529" height="110" as="geometry">
            <mxRectangle width="529" height="110" as="alternateBounds" />
          </mxGeometry>
        </mxCell>
        <mxCell id="F8t8uROCUfs1VxSHA6aZ-76" value="" style="shape=tableRow;horizontal=0;startSize=0;swimlaneHead=0;swimlaneBody=0;strokeColor=inherit;top=0;left=0;bottom=0;right=0;collapsible=0;dropTarget=0;fillColor=none;points=[[0,0.5],[1,0.5]];portConstraint=eastwest;" parent="F8t8uROCUfs1VxSHA6aZ-66" vertex="1">
          <mxGeometry y="260" width="789" height="130" as="geometry" />
        </mxCell>
        <mxCell id="F8t8uROCUfs1VxSHA6aZ-77" value="Ограничения" style="shape=partialRectangle;html=1;whiteSpace=wrap;connectable=0;overflow=hidden;top=0;left=0;bottom=0;right=0;pointerEvents=1;fontSize=17;fontStyle=1" parent="F8t8uROCUfs1VxSHA6aZ-76" vertex="1">
          <mxGeometry width="260" height="130" as="geometry">
            <mxRectangle width="260" height="130" as="alternateBounds" />
          </mxGeometry>
        </mxCell>
        <mxCell id="F8t8uROCUfs1VxSHA6aZ-78" value="1. AI-агент работает в пределах IDE и файлов конкретного проекта;&lt;div&gt;2. Ответы AI-агента ограничены контекстом, структурой проекта;&lt;/div&gt;&lt;div&gt;3. Все изменения должны подтверждаться пользователем;&lt;/div&gt;&lt;div&gt;*4. Возможно потребуется подключение к интернету.&lt;/div&gt;&lt;div&gt;&lt;br&gt;&lt;/div&gt;" style="shape=partialRectangle;html=1;whiteSpace=wrap;connectable=0;overflow=hidden;top=0;left=0;bottom=0;right=0;pointerEvents=1;perimeterSpacing=1;strokeWidth=1;fontSize=16;align=left;" parent="F8t8uROCUfs1VxSHA6aZ-76" vertex="1">
          <mxGeometry x="260" width="529" height="130" as="geometry">
            <mxRectangle width="529" height="130" as="alternateBounds" />
          </mxGeometry>
        </mxCell>
        <mxCell id="F8t8uROCUfs1VxSHA6aZ-79" value="" style="shape=tableRow;horizontal=0;startSize=0;swimlaneHead=0;swimlaneBody=0;strokeColor=inherit;top=0;left=0;bottom=0;right=0;collapsible=0;dropTarget=0;fillColor=none;points=[[0,0.5],[1,0.5]];portConstraint=eastwest;" parent="F8t8uROCUfs1VxSHA6aZ-66" vertex="1">
          <mxGeometry y="390" width="789" height="90" as="geometry" />
        </mxCell>
        <mxCell id="F8t8uROCUfs1VxSHA6aZ-80" value="Триггер" style="shape=partialRectangle;html=1;whiteSpace=wrap;connectable=0;strokeColor=#82b366;overflow=hidden;fillColor=#d5e8d4;top=0;left=0;bottom=0;right=0;pointerEvents=1;fontSize=17;fontStyle=1" parent="F8t8uROCUfs1VxSHA6aZ-79" vertex="1">
          <mxGeometry width="260" height="90" as="geometry">
            <mxRectangle width="260" height="90" as="alternateBounds" />
          </mxGeometry>
        </mxCell>
        <mxCell id="F8t8uROCUfs1VxSHA6aZ-81" value="У системного аналитика возникает потребность создать или отредактировать артефакт проекта" style="shape=partialRectangle;html=1;whiteSpace=wrap;connectable=0;overflow=hidden;top=0;left=0;bottom=0;right=0;pointerEvents=1;perimeterSpacing=1;fontSize=16;" parent="F8t8uROCUfs1VxSHA6aZ-79" vertex="1">
          <mxGeometry x="260" width="529" height="90" as="geometry">
            <mxRectangle width="529" height="90" as="alternateBounds" />
          </mxGeometry>
        </mxCell>
        <mxCell id="F8t8uROCUfs1VxSHA6aZ-82" value="" style="shape=tableRow;horizontal=0;startSize=0;swimlaneHead=0;swimlaneBody=0;strokeColor=inherit;top=0;left=0;bottom=0;right=0;collapsible=0;dropTarget=0;fillColor=none;points=[[0,0.5],[1,0.5]];portConstraint=eastwest;" parent="F8t8uROCUfs1VxSHA6aZ-66" vertex="1">
          <mxGeometry y="480" width="789" height="670" as="geometry" />
        </mxCell>
        <mxCell id="F8t8uROCUfs1VxSHA6aZ-83" value="Основной сценарий" style="shape=partialRectangle;html=1;whiteSpace=wrap;connectable=0;strokeColor=#82b366;overflow=hidden;fillColor=#d5e8d4;top=0;left=0;bottom=0;right=0;pointerEvents=1;fontSize=17;fontStyle=1" parent="F8t8uROCUfs1VxSHA6aZ-82" vertex="1">
          <mxGeometry width="260" height="670" as="geometry">
            <mxRectangle width="260" height="670" as="alternateBounds" />
          </mxGeometry>
        </mxCell>
        <mxCell id="F8t8uROCUfs1VxSHA6aZ-84" value="&lt;font style=&quot;font-size: 16px;&quot;&gt;1. &lt;b&gt;Cистемный аналитик&lt;/b&gt;&amp;nbsp;открывает IDE и переходит к рабочему проекту;&lt;/font&gt;&lt;div&gt;&lt;font style=&quot;font-size: 16px;&quot;&gt;2.&amp;nbsp;&lt;b&gt;AI-агент&lt;/b&gt; автоматически определяет активный проект и считывает предварительный контекст: название проекта, текущую директорию, историю взаимодействия;&lt;/font&gt;&lt;/div&gt;&lt;div&gt;&lt;font style=&quot;font-size: 16px;&quot;&gt;3. &lt;b&gt;Системный аналитик&lt;/b&gt;&lt;span style=&quot;background-color: transparent; color: light-dark(rgb(0, 0, 0), rgb(255, 255, 255));&quot;&gt;&amp;nbsp;активирует AI-агента через команду в IDE (например, &lt;/span&gt;&lt;code data-start=&quot;973&quot; data-end=&quot;983&quot; style=&quot;background-color: transparent; color: light-dark(rgb(0, 0, 0), rgb(255, 255, 255));&quot;&gt;/start_agent&lt;/code&gt;&lt;span style=&quot;background-color: transparent; color: light-dark(rgb(0, 0, 0), rgb(255, 255, 255));&quot;&gt;, клавиши&amp;nbsp;&lt;/span&gt;&lt;code data-start=&quot;993&quot; data-end=&quot;1007&quot; style=&quot;background-color: transparent; color: light-dark(rgb(0, 0, 0), rgb(255, 255, 255));&quot;&gt;Ctrl+Shift+A, специальную вкладку, горячую клавишу&lt;/code&gt;&lt;span style=&quot;background-color: transparent; color: light-dark(rgb(0, 0, 0), rgb(255, 255, 255));&quot;&gt;);&lt;/span&gt;&lt;/font&gt;&lt;/div&gt;&lt;div&gt;&lt;font style=&quot;font-size: 16px;&quot;&gt;&lt;span style=&quot;background-color: transparent; color: light-dark(rgb(0, 0, 0), rgb(255, 255, 255));&quot;&gt;4.&amp;nbsp;&lt;/span&gt;&lt;span style=&quot;background-color: transparent;&quot;&gt;&lt;b&gt;AI-агент&lt;/b&gt; отображает окно консультации и предлагает выбор типа создаваемого артефакта (например, User Story, Use Case, Sequence Diagram и др.);&lt;/span&gt;&lt;/font&gt;&lt;/div&gt;&lt;div&gt;&lt;font style=&quot;font-size: 16px;&quot;&gt;&lt;span style=&quot;background-color: transparent;&quot;&gt;5.&amp;nbsp;&lt;/span&gt;&lt;span style=&quot;background-color: transparent;&quot;&gt;&lt;b&gt;Аналитик&lt;/b&gt; выбирает нужный тип артефакта и (по необходимости) вводит краткое описание задачи, связанного процесса или бизнес-контекста;&lt;/span&gt;&lt;/font&gt;&lt;/div&gt;&lt;div&gt;&lt;font style=&quot;font-size: 16px;&quot;&gt;6. &lt;b&gt;AI-агент&lt;/b&gt; анализирует: полученные вводные данные от аналитика, историю проекта, ранее созданные артефакты (если есть), и на их основе создает предварительные черновик артефакта и показывает его в IDE;&lt;/font&gt;&lt;/div&gt;&lt;div&gt;&lt;font style=&quot;font-size: 16px;&quot;&gt;7. &lt;b&gt;Системный аналитик&lt;/b&gt; просматривает предложенный черновик и: уточняет или дополняет описание, задает уточняющие вопросы;&lt;/font&gt;&lt;/div&gt;&lt;div&gt;&lt;font style=&quot;font-size: 16px;&quot;&gt;8. &lt;b&gt;AI-агент&lt;/b&gt; реагирует на уточняющие вопросы: предлагает улучшения, объясняет непонятные/спорные моменты, предлагает примеры в том числе из других задач, (если есть)&lt;/font&gt;&lt;/div&gt;&lt;div&gt;&lt;font style=&quot;font-size: 16px;&quot;&gt;9. &lt;b&gt;Системный аналитик&lt;/b&gt; утверждает финальную версию; артефакта либо, при необходимости, вносит правки вручную&lt;/font&gt;&lt;/div&gt;&lt;div&gt;&lt;font style=&quot;font-size: 16px;&quot;&gt;10. &lt;b&gt;AI-агент&lt;/b&gt; предлагает сохранить файл: в нужно й директории (например, docs/, project/, requirements/), в нужном формате (.md, .xml, .json и т.д.);&lt;/font&gt;&lt;/div&gt;&lt;div&gt;&lt;font style=&quot;font-size: 16px;&quot;&gt;11. &lt;b&gt;Системный аналитик&lt;/b&gt; подтверждает сохранение и (опционально и если настроено) связывает артефакт с задачей проекта в системе управления требованиями.&lt;/font&gt;&lt;/div&gt;&lt;div&gt;&lt;font style=&quot;font-size: 16px;&quot;&gt;12.&amp;nbsp;&lt;b&gt;AI-агент&lt;/b&gt; сохраняет артефакт, логирует завершённую консультацию и обновляет историю взаимодействий, чтобы учесть это в будущих обращениях.&lt;/font&gt;&lt;/div&gt;&lt;div&gt;&lt;font style=&quot;font-size: 16px;&quot;&gt;&lt;br&gt;&lt;/font&gt;&lt;/div&gt;&lt;div&gt;&lt;br&gt;&lt;/div&gt;" style="shape=partialRectangle;html=1;whiteSpace=wrap;connectable=0;overflow=hidden;top=0;left=0;bottom=0;right=0;pointerEvents=1;align=left;verticalAlign=top;" parent="F8t8uROCUfs1VxSHA6aZ-82" vertex="1">
          <mxGeometry x="260" width="529" height="670" as="geometry">
            <mxRectangle width="529" height="670" as="alternateBounds" />
          </mxGeometry>
        </mxCell>
        <mxCell id="F8t8uROCUfs1VxSHA6aZ-85" value="" style="shape=tableRow;horizontal=0;startSize=0;swimlaneHead=0;swimlaneBody=0;strokeColor=inherit;top=0;left=0;bottom=0;right=0;collapsible=0;dropTarget=0;fillColor=none;points=[[0,0.5],[1,0.5]];portConstraint=eastwest;" parent="F8t8uROCUfs1VxSHA6aZ-66" vertex="1">
          <mxGeometry y="1150" width="789" height="320" as="geometry" />
        </mxCell>
        <mxCell id="F8t8uROCUfs1VxSHA6aZ-86" value="Альтернативный сценарий" style="shape=partialRectangle;html=1;whiteSpace=wrap;connectable=0;overflow=hidden;top=0;left=0;bottom=0;right=0;pointerEvents=1;fontSize=17;fontStyle=1" parent="F8t8uROCUfs1VxSHA6aZ-85" vertex="1">
          <mxGeometry width="260" height="320" as="geometry">
            <mxRectangle width="260" height="320" as="alternateBounds" />
          </mxGeometry>
        </mxCell>
        <mxCell id="F8t8uROCUfs1VxSHA6aZ-87" value="&lt;div&gt;&lt;b&gt;&lt;font style=&quot;font-size: 16px;&quot;&gt;А1. (Шаг 5)&amp;nbsp;&lt;/font&gt;&lt;/b&gt;&lt;/div&gt;&lt;div&gt;&lt;font style=&quot;font-size: 16px;&quot;&gt;&lt;span style=&quot;background-color: transparent; color: light-dark(rgb(0, 0, 0), rgb(255, 255, 255));&quot;&gt;- Системный аналитик вводит команду (&lt;/span&gt;&lt;span style=&quot;background-color: transparent; color: light-dark(rgb(0, 0, 0), rgb(255, 255, 255));&quot;&gt;пример /optimize [название/идентификатор артефакта]&lt;/span&gt;&lt;span style=&quot;background-color: transparent; color: light-dark(rgb(0, 0, 0), rgb(255, 255, 255));&quot;&gt;) для оптимизации уже существующего артефакта;&lt;/span&gt;&lt;/font&gt;&lt;/div&gt;&lt;div&gt;&lt;span style=&quot;background-color: transparent; color: light-dark(rgb(0, 0, 0), rgb(255, 255, 255));&quot;&gt;&lt;font style=&quot;font-size: 16px;&quot;&gt;- AI-агент (Шаг 6) находит и улучшает созданный ранее артефакт.&lt;/font&gt;&lt;/span&gt;&lt;/div&gt;&lt;div&gt;&lt;span style=&quot;background-color: transparent; color: light-dark(rgb(0, 0, 0), rgb(255, 255, 255));&quot;&gt;&lt;font style=&quot;font-size: 16px;&quot;&gt;&lt;br&gt;&lt;/font&gt;&lt;/span&gt;&lt;/div&gt;&lt;div&gt;&lt;span style=&quot;background-color: transparent; color: light-dark(rgb(0, 0, 0), rgb(255, 255, 255));&quot;&gt;&lt;font style=&quot;font-size: 16px;&quot;&gt;&lt;b&gt;А.2. (Шаг 6)&lt;/b&gt; AI-агент предлагает примеры созданных ранее артефактов для аналогичных случаев.&lt;/font&gt;&lt;/span&gt;&lt;/div&gt;&lt;div&gt;&lt;font style=&quot;font-size: 16px;&quot;&gt;&lt;br&gt;&lt;/font&gt;&lt;/div&gt;&lt;font style=&quot;font-size: 16px;&quot;&gt;&lt;b style=&quot;&quot;&gt;*А.3. (Шаг 6)&lt;/b&gt;&amp;nbsp;Если отсутствует подключение к интернету тогда AI-агент работает в оффлайн режиме и использует локальную модель, в таком случае он может сгенерировать базовый шаблон артефакта с пустыми полями и короткими подсказками (черновик) - &lt;b style=&quot;&quot;&gt;но возможно ли это реализовать?&lt;/b&gt;&amp;nbsp;&lt;/font&gt;" style="shape=partialRectangle;html=1;whiteSpace=wrap;connectable=0;overflow=hidden;top=0;left=0;bottom=0;right=0;pointerEvents=1;align=left;verticalAlign=top;" parent="F8t8uROCUfs1VxSHA6aZ-85" vertex="1">
          <mxGeometry x="260" width="529" height="320" as="geometry">
            <mxRectangle width="529" height="320" as="alternateBounds" />
          </mxGeometry>
        </mxCell>
        <mxCell id="F8t8uROCUfs1VxSHA6aZ-88" value="" style="shape=tableRow;horizontal=0;startSize=0;swimlaneHead=0;swimlaneBody=0;strokeColor=inherit;top=0;left=0;bottom=0;right=0;collapsible=0;dropTarget=0;fillColor=none;points=[[0,0.5],[1,0.5]];portConstraint=eastwest;" parent="F8t8uROCUfs1VxSHA6aZ-66" vertex="1">
          <mxGeometry y="1470" width="789" height="590" as="geometry" />
        </mxCell>
        <mxCell id="F8t8uROCUfs1VxSHA6aZ-89" value="Исключительный сценарий" style="shape=partialRectangle;html=1;whiteSpace=wrap;connectable=0;overflow=hidden;top=0;left=0;bottom=0;right=0;pointerEvents=1;fontSize=17;fontStyle=1" parent="F8t8uROCUfs1VxSHA6aZ-88" vertex="1">
          <mxGeometry width="260" height="590" as="geometry">
            <mxRectangle width="260" height="590" as="alternateBounds" />
          </mxGeometry>
        </mxCell>
        <mxCell id="F8t8uROCUfs1VxSHA6aZ-90" value="&lt;font style=&quot;font-size: 16px;&quot;&gt;&lt;b&gt;E.1. (Шаг 2)&lt;/b&gt; Если нет подключения к интернету (или недоступен API), AI-агент:&lt;/font&gt;&lt;div&gt;&lt;font style=&quot;font-size: 16px;&quot;&gt;- отображает сообщение об ошибке&lt;/font&gt;&lt;/div&gt;&lt;div&gt;&lt;font style=&quot;font-size: 16px;&quot;&gt;- предлагает перейти в офлайн-режим (см. *A.3.)&lt;/font&gt;&lt;/div&gt;&lt;div&gt;&lt;font style=&quot;font-size: 16px;&quot;&gt;- не позволяет продолжить генерацию артефакта (если отсутствует офлайн-модель)&lt;/font&gt;&lt;/div&gt;&lt;div&gt;&lt;font style=&quot;font-size: 16px;&quot;&gt;&lt;br&gt;&lt;/font&gt;&lt;/div&gt;&lt;div&gt;&lt;font style=&quot;font-size: 16px;&quot;&gt;&lt;b&gt;E.2. (Шаг 4)&lt;/b&gt; Если AI-агент не смог определить проект (не нашел его, не смог распознать структуру, нет конфигурационного файл), тогда он:&lt;/font&gt;&lt;/div&gt;&lt;div&gt;&lt;font style=&quot;font-size: 16px;&quot;&gt;- показывает запрос &quot;Пожалуйста, выберете проект или настройте контекст вручную&quot;&lt;/font&gt;&lt;/div&gt;&lt;div&gt;&lt;font style=&quot;font-size: 16px;&quot;&gt;- предоставляет форму для ввода ключевых параметров (название проекта, предметная область, возможно - этап проекта)&lt;/font&gt;&lt;/div&gt;&lt;div&gt;&lt;font style=&quot;font-size: 16px;&quot;&gt;&lt;br&gt;&lt;/font&gt;&lt;/div&gt;&lt;div&gt;&lt;font style=&quot;font-size: 16px;&quot;&gt;&lt;b&gt;E.3. (Шаг 10)&lt;/b&gt; Если в целевой директории уже существует артефакт с тем же именем:&amp;nbsp;&lt;/font&gt;&lt;/div&gt;&lt;div&gt;&lt;font style=&quot;font-size: 16px;&quot;&gt;- AI-агент&amp;nbsp;&lt;span style=&quot;background-color: transparent; color: light-dark(rgb(0, 0, 0), rgb(255, 255, 255));&quot;&gt;предлагает сравнение версий&lt;/span&gt;&lt;/font&gt;&lt;/div&gt;&lt;div&gt;&lt;span style=&quot;background-color: transparent; color: light-dark(rgb(0, 0, 0), rgb(255, 255, 255));&quot;&gt;&lt;font style=&quot;font-size: 16px;&quot;&gt;- системный аналитик может выбрать, заменить, объединить, отменить операцию&lt;/font&gt;&lt;/span&gt;&lt;/div&gt;&lt;div&gt;&lt;font style=&quot;font-size: 16px;&quot;&gt;&lt;br&gt;&lt;/font&gt;&lt;/div&gt;&lt;div&gt;&lt;font style=&quot;font-size: 16px;&quot;&gt;&lt;b&gt;E.4. (Шаг 12) &lt;/b&gt;Если IDE не поддерживает формат сохранения, указанный пользователем, или у проекта какая-либо нестандартная структура, тогда:&lt;/font&gt;&lt;/div&gt;&lt;div&gt;&lt;font style=&quot;font-size: 16px;&quot;&gt;- AI-агент показывает предупреждения: &quot;Формат .xxx не поддерживается&quot;&lt;/font&gt;&lt;/div&gt;&lt;div&gt;&lt;font style=&quot;font-size: 16px;&quot;&gt;- предлагает выбрать из допустимых форматов (.md, XML, JSON и т.д.)&lt;/font&gt;&lt;/div&gt;&lt;div&gt;&lt;font style=&quot;font-size: 16px;&quot;&gt;- при необходимости - экспортирует в текстовый файл или буфер обмена&lt;/font&gt;&lt;/div&gt;&lt;div&gt;&lt;br&gt;&lt;/div&gt;" style="shape=partialRectangle;html=1;whiteSpace=wrap;connectable=0;overflow=hidden;top=0;left=0;bottom=0;right=0;pointerEvents=1;align=left;verticalAlign=top;" parent="F8t8uROCUfs1VxSHA6aZ-88" vertex="1">
          <mxGeometry x="260" width="529" height="590" as="geometry">
            <mxRectangle width="529" height="590" as="alternateBounds" />
          </mxGeometry>
        </mxCell>
        <mxCell id="F8t8uROCUfs1VxSHA6aZ-91" value="" style="shape=tableRow;horizontal=0;startSize=0;swimlaneHead=0;swimlaneBody=0;strokeColor=inherit;top=0;left=0;bottom=0;right=0;collapsible=0;dropTarget=0;fillColor=none;points=[[0,0.5],[1,0.5]];portConstraint=eastwest;verticalAlign=top;" parent="F8t8uROCUfs1VxSHA6aZ-66" vertex="1">
          <mxGeometry y="2060" width="789" height="255" as="geometry" />
        </mxCell>
        <mxCell id="F8t8uROCUfs1VxSHA6aZ-92" value="Результат/Критерии успеха" style="shape=partialRectangle;html=1;whiteSpace=wrap;connectable=0;strokeColor=light-dark(#000000, #446e2c);overflow=hidden;fillColor=#d5e8d4;top=0;left=0;bottom=0;right=0;pointerEvents=1;fontSize=17;fontStyle=1" parent="F8t8uROCUfs1VxSHA6aZ-91" vertex="1">
          <mxGeometry width="260" height="255" as="geometry">
            <mxRectangle width="260" height="255" as="alternateBounds" />
          </mxGeometry>
        </mxCell>
        <mxCell id="F8t8uROCUfs1VxSHA6aZ-93" value="&lt;div&gt;&lt;font style=&quot;font-size: 16px;&quot;&gt;Системный аналитик получил структурированную консультацию от AI-агента в пределах IDE:&lt;/font&gt;&lt;/div&gt;&lt;div&gt;&lt;span style=&quot;background-color: transparent; color: light-dark(rgb(0, 0, 0), rgb(255, 255, 255));&quot;&gt;&lt;font style=&quot;font-size: 16px;&quot;&gt;- AI-агент учёл тип артефакта, контекст проекта и историю взаимодействия;&lt;/font&gt;&lt;/span&gt;&lt;/div&gt;&lt;div&gt;&lt;span style=&quot;background-color: transparent; color: light-dark(rgb(0, 0, 0), rgb(255, 255, 255));&quot;&gt;&lt;font style=&quot;font-size: 16px;&quot;&gt;- Предложение AI-агента было отредактировано или принято аналитиком;&lt;/font&gt;&lt;/span&gt;&lt;/div&gt;&lt;div&gt;&lt;span style=&quot;background-color: transparent; color: light-dark(rgb(0, 0, 0), rgb(255, 255, 255));&quot;&gt;&lt;font style=&quot;font-size: 16px;&quot;&gt;- Артефакт сохранён в структуре проекта в выбранном системным аналитиком формате.&lt;/font&gt;&lt;/span&gt;&lt;/div&gt;&lt;div&gt;&lt;span style=&quot;background-color: transparent; color: light-dark(rgb(0, 0, 0), rgb(255, 255, 255));&quot;&gt;&lt;font style=&quot;font-size: 16px;&quot;&gt;&lt;br&gt;&lt;/font&gt;&lt;/span&gt;&lt;/div&gt;&lt;div&gt;&lt;span style=&quot;background-color: transparent; color: light-dark(rgb(0, 0, 0), rgb(255, 255, 255));&quot;&gt;&lt;font style=&quot;font-size: 16px;&quot;&gt;AI-агент обновил данные о проекте и может использовать их при следующих обращениях.&lt;/font&gt;&lt;/span&gt;&lt;/div&gt;" style="shape=partialRectangle;html=1;whiteSpace=wrap;connectable=0;overflow=hidden;top=0;left=0;bottom=0;right=0;pointerEvents=1;align=left;" parent="F8t8uROCUfs1VxSHA6aZ-91" vertex="1">
          <mxGeometry x="260" width="529" height="255" as="geometry">
            <mxRectangle width="529" height="255" as="alternateBounds" />
          </mxGeometry>
        </mxCell>
      </root>
    </mxGraphModel>
  </diagram>
</mxfile>
